<svg width="35" height="38" viewBox="0 0 35 38" fill="none" xmlns="http://www.w3.org/2000/svg">
<ellipse cx="17.5" cy="16.5" rx="17.5" ry="16.5" fill="#E8483F"/>
<circle cx="17" cy="36" r="2" fill="#E8483F"/>
<path fill-rule="evenodd" clip-rule="evenodd" d="M24.6857 7.08904C24.7626 7.14224 24.8262 7.21652 24.8702 7.30484C24.9143 7.39316 24.9375 7.4926 24.9375 7.59373V25.4062C24.9375 25.5637 24.8815 25.7147 24.7819 25.8261C24.6823 25.9374 24.5471 26 24.4062 26H21.2188C21.0779 26 20.9427 25.9374 20.8431 25.8261C20.7435 25.7147 20.6875 25.5637 20.6875 25.4062V23.625H19.625V25.4062C19.625 25.5637 19.569 25.7147 19.4694 25.8261C19.3698 25.9374 19.2346 26 19.0938 26H9.53125C9.39035 26 9.25523 25.9374 9.1556 25.8261C9.05597 25.7147 9 25.5637 9 25.4062V18.875C9.00008 18.7504 9.03522 18.629 9.10043 18.528C9.16565 18.427 9.25763 18.3515 9.36338 18.3121L15.375 16.0725V12.3437C15.375 12.2336 15.4024 12.1256 15.4542 12.0318C15.506 11.9381 15.5801 11.8623 15.6683 11.8129L24.1683 7.06292C24.2493 7.01756 24.3394 6.99615 24.43 7.00073C24.5206 7.0053 24.6086 7.0357 24.6857 7.08904V7.08904ZM15.375 17.3241L10.0625 19.3025V24.8125H15.375V17.3241ZM16.4375 24.8125H18.5625V23.0312C18.5625 22.8738 18.6185 22.7227 18.7181 22.6114C18.8177 22.5 18.9529 22.4375 19.0938 22.4375H21.2188C21.3596 22.4375 21.4948 22.5 21.5944 22.6114C21.694 22.7227 21.75 22.8738 21.75 23.0312V24.8125H23.875V8.55442L16.4375 12.7107V24.8125Z" fill="white"/>
<path d="M11.125 20.0625H12.1875V21.25H11.125V20.0625ZM13.25 20.0625H14.3125V21.25H13.25V20.0625ZM11.125 22.4375H12.1875V23.625H11.125V22.4375ZM13.25 22.4375H14.3125V23.625H13.25V22.4375ZM17.5 17.6875H18.5625V18.875H17.5V17.6875ZM19.625 17.6875H20.6875V18.875H19.625V17.6875ZM17.5 20.0625H18.5625V21.25H17.5V20.0625ZM19.625 20.0625H20.6875V21.25H19.625V20.0625ZM21.75 17.6875H22.8125V18.875H21.75V17.6875ZM21.75 20.0625H22.8125V21.25H21.75V20.0625ZM17.5 15.3125H18.5625V16.5H17.5V15.3125ZM19.625 15.3125H20.6875V16.5H19.625V15.3125ZM21.75 15.3125H22.8125V16.5H21.75V15.3125ZM17.5 12.9375H18.5625V14.125H17.5V12.9375ZM19.625 12.9375H20.6875V14.125H19.625V12.9375ZM21.75 12.9375H22.8125V14.125H21.75V12.9375ZM21.75 10.5625H22.8125V11.75H21.75V10.5625Z" fill="white"/>
</svg>
