<svg xmlns="http://www.w3.org/2000/svg">
	<symbol  id="arrow" viewBox="0 0 12 12">
		<path fill-rule="evenodd" clip-rule="evenodd" d="M1.78959 8.99996C1.9917 8.99996 2.1938 8.92312 2.34802 8.7689L6.00013 5.11627L9.65224 8.7689C9.96066 9.0768 10.4607 9.0768 10.7691 8.7689C11.077 8.46048 11.077 7.96048 10.7691 7.65206L6.55855 3.44153C6.25013 3.13363 5.75012 3.13363 5.4417 3.44153L1.23117 7.65206C0.923277 7.96048 0.923277 8.46048 1.23117 8.76891C1.38538 8.92312 1.58749 8.99996 1.78959 8.99996"/>
	</symbol>
	
	<symbol id='check' viewBox="0 0 18 18">
		<path fill-rule="evenodd" clip-rule="evenodd" d="M14.3565 4.74676C14.5144 4.90495 14.6032 5.11941 14.6032 5.34301C14.6032 5.5666 14.5144 5.78105 14.3565 5.93926L8.45021 12.9705C8.292 13.1285 8.07755 13.2172 7.85396 13.2172C7.63036 13.2172 7.41591 13.1285 7.25771 12.9705L3.60146 9.31426C3.45242 9.1543 3.37128 8.94276 3.37513 8.72416C3.37899 8.50557 3.46754 8.29702 3.62214 8.14242C3.77672 7.98784 3.98529 7.89929 4.20387 7.89543C4.42246 7.89157 4.63401 7.97272 4.79396 8.12176L7.85396 11.1818L13.164 4.74676C13.3221 4.58875 13.5366 4.5 13.7602 4.5C13.9837 4.5 14.1983 4.58875 14.3565 4.74676Z" fill="white"/>
	</symbol>

	<symbol id='radio-check' viewBox="0 0 18 18">
		<g filter="url(#filter0_i_115_46)">
		<circle cx="9" cy="9" r="9" fill="white"/>
		</g>
		<circle cx="9" cy="9" r="7" stroke="#CD0000" stroke-width="4"/>
		<defs>
		<filter id="filter0_i_115_46" x="0" y="0" width="18" height="18" filterUnits="userSpaceOnUse" color-interpolation-filters="sRGB">
		<feFlood flood-opacity="0" result="BackgroundImageFix"/>
		<feBlend mode="normal" in="SourceGraphic" in2="BackgroundImageFix" result="shape"/>
		<feColorMatrix in="SourceAlpha" type="matrix" values="0 0 0 0 0 0 0 0 0 0 0 0 0 0 0 0 0 0 127 0" result="hardAlpha"/>
		<feMorphology radius="2" operator="erode" in="SourceAlpha" result="effect1_innerShadow_115_46"/>
		<feOffset/>
		<feGaussianBlur stdDeviation="2.5"/>
		<feComposite in2="hardAlpha" operator="arithmetic" k2="-1" k3="1"/>
		<feColorMatrix type="matrix" values="0 0 0 0 0 0 0 0 0 0 0 0 0 0 0 0 0 0 0.05 0"/>
		<feBlend mode="normal" in2="shape" result="effect1_innerShadow_115_46"/>
		</filter>
		</defs>
	</symbol>

	<symbol id='car' viewBox="0 0 420 191">
		<g fill="#CD0000">
		<path d="M81.123 84.924C63.962 84.924 49.998 98.883 49.998 116.044C49.998 133.21 63.957 147.175 81.123 147.175C98.278 147.175 112.243 133.216 112.243 116.044C112.243 98.888 98.278 84.924 81.123 84.924ZM81.123 129.88C73.492 129.88 67.292 123.675 67.292 116.043C67.292 108.423 73.491 102.218 81.123 102.218C88.749 102.218 94.948 108.423 94.948 116.043C94.948 123.669 88.749 129.88 81.123 129.88Z" fill="#CD0000"/>
		<path d="M339.65 90.541C324.038 90.541 311.342 103.243 311.342 118.849C311.342 134.455 324.044 147.169 339.65 147.169C355.256 147.169 367.958 134.456 367.958 118.849C367.958 103.242 355.262 90.541 339.65 90.541ZM339.65 129.88C333.567 129.88 328.631 124.932 328.631 118.849C328.631 112.778 333.567 107.83 339.65 107.83C345.721 107.83 350.669 112.778 350.669 118.849C350.669 124.932 345.721 129.88 339.65 129.88Z" fill="#CD0000"/>
		<path d="M298.041 125.375H120.497V142.67H298.041V125.375Z" fill="#CD0000"/>
		<path d="M415.202 74.405L407.012 66.226L391.371 58.746L285.421 48.705L231.121 9.67395H185.461L127.465 19.541L59.835 50.794L43.699 45.6369H0V59.712L13.441 79.877L0 88.981V119.67L12.079 131.743L24.303 119.524L17.283 112.504V98.1609L37.354 84.574L22.918 62.9259H41.004L60.976 69.317L132.634 36.201L186.922 26.9689H225.55L279.134 65.475L386.685 75.662L396.883 80.546L399.945 83.5959L403.275 94.406L402.012 105.728L391.953 120.84L406.331 130.439L418.736 111.823L420.849 92.7359L415.202 74.405Z" fill="#CD0000"/>
		</g>
		<defs>
		<clipPath id="clip0_1601_2353">
		<rect width="420" height="156" fill="white"/>
		</clipPath>
		</defs>
	</symbol>

	
	<symbol id='broken-car' viewBox="0 0 420 191">
		<g clip-path="url(#clip0_1601_2331)">
		<path d="M81.123 119.924C63.962 119.924 49.998 133.883 49.998 151.044C49.998 168.21 63.957 182.175 81.123 182.175C98.278 182.175 112.243 168.216 112.243 151.044C112.243 133.888 98.278 119.924 81.123 119.924ZM81.123 164.88C73.492 164.88 67.292 158.675 67.292 151.043C67.292 143.423 73.491 137.218 81.123 137.218C88.749 137.218 94.948 143.423 94.948 151.043C94.948 158.669 88.749 164.88 81.123 164.88Z" fill="#CD0000"/>
		<path d="M339.65 125.541C324.038 125.541 311.342 138.243 311.342 153.849C311.342 169.455 324.044 182.169 339.65 182.169C355.256 182.169 367.958 169.456 367.958 153.849C367.958 138.242 355.262 125.541 339.65 125.541ZM339.65 164.88C333.567 164.88 328.631 159.932 328.631 153.849C328.631 147.778 333.567 142.83 339.65 142.83C345.721 142.83 350.669 147.778 350.669 153.849C350.669 159.932 345.721 164.88 339.65 164.88Z" fill="#CD0000"/>
		<path d="M298.041 160.375H120.497V177.67H298.041V160.375Z" fill="#CD0000"/>
		<path d="M22 139L10 151.5L-2 139V109L11.5 100L-2 80V65.5H42.5L58.5 70.5L125.5 39.5L183.5 29.5H229L283.5 69L308 3L324 5.5L298.5 87.5L277.5 85.5L223.5 47H185L130 56L58.5 89L39 82.5H20.5L35.5 104.5L15.5 118V132.5L22 139Z" fill="#CD0000"/>
		<path d="M390 77L385 94L395 99L398 102L401.5 113.5L400 124.5L390 139L405 149L417 130.5L419 111L413.5 93L405 84.5L390 77Z" fill="#CD0000"/>
		<path d="M345.583 30.8439L344.898 14.6659C344.859 13.7425 343.704 13.3511 343.111 14.0603C342.955 14.2468 342.872 14.4832 342.876 14.7261L343.069 25.8596C343.14 29.9711 342.39 34.0555 340.862 37.8734L338.739 43.1801C337.291 46.7988 336.517 50.6515 336.454 54.5485L336.362 60.2308C336.291 64.6304 335.065 68.9342 332.807 72.7113L328.574 79.7944C328.482 79.9493 328.443 80.1304 328.464 80.3096C328.554 81.0871 329.579 81.307 329.981 80.6351L337.236 68.4949C337.728 67.6719 338.002 66.7367 338.03 65.7783L338.348 55.11C338.469 51.0663 339.355 47.0821 340.96 43.3685L344.992 34.0377C345.427 33.0312 345.629 31.9394 345.583 30.8439Z" fill="#C4C4C4"/>
		<path d="M360.583 35.5871L359.898 19.409C359.859 18.4857 358.704 18.0942 358.111 18.8035C357.955 18.99 357.872 19.2263 357.876 19.4693L358.069 30.6027C358.14 34.7143 357.39 38.7987 355.862 42.6166L353.739 47.9232C352.291 51.5419 351.517 55.3946 351.454 59.2917L351.362 64.9739C351.291 69.3736 350.065 73.6773 347.807 77.4544L343.574 84.5376C343.482 84.6925 343.443 84.8736 343.464 85.0528C343.554 85.8303 344.579 86.0502 344.981 85.3783L352.236 73.238C352.728 72.415 353.002 71.4799 353.03 70.5215L353.348 59.8532C353.469 55.8094 354.355 51.8252 355.96 48.1117L359.992 38.7809C360.427 37.7744 360.629 36.6826 360.583 35.5871Z" fill="#C4C4C4"/>
		<path d="M379.583 37.5871L378.898 21.409C378.859 20.4857 377.704 20.0942 377.111 20.8035C376.955 20.99 376.872 21.2263 376.876 21.4693L377.069 32.6027C377.14 36.7143 376.39 40.7987 374.862 44.6166L372.739 49.9232C371.291 53.5419 370.517 57.3946 370.454 61.2917L370.362 66.9739C370.291 71.3736 369.065 75.6773 366.807 79.4544L362.574 86.5376C362.482 86.6925 362.443 86.8736 362.464 87.0528C362.554 87.8303 363.579 88.0502 363.981 87.3783L371.236 75.238C371.728 74.415 372.002 73.4799 372.03 72.5215L372.348 61.8532C372.469 57.8094 373.355 53.8252 374.96 50.1117L378.992 40.7809C379.427 39.7744 379.629 38.6826 379.583 37.5871Z" fill="#C4C4C4"/>
		</g>
		<defs>
		<clipPath id="clip0_1601_2331">
		<rect width="420" height="191" fill="white"/>
		</clipPath>
		</defs>
	</symbol>



	<symbol id="star" viewBox="0 0 16 16" >
		<path d="M8.95106 1.30902C8.65171 0.387709 7.3483 0.387701 7.04894 1.30902L5.84062 5.02786H1.93039C0.961671 5.02786 0.558886 6.26748 1.3426 6.83688L4.50604 9.13525L3.29772 12.8541C2.99837 13.7754 4.05284 14.5415 4.83656 13.9721L8 11.6738L11.1634 13.9721C11.9472 14.5415 13.0016 13.7754 12.7023 12.8541L11.494 9.13525L14.6574 6.83688C15.4411 6.26748 15.0383 5.02786 14.0696 5.02786L10.1594 5.02786L8.95106 1.30902Z"  stroke="white"/>
	</symbol>

	<symbol id='email' viewBox="0 0 31 31">
		<path fill-rule="evenodd" clip-rule="evenodd" d="M5.16667 5.16675C3.73993 5.16675 2.58333 6.32335 2.58333 7.75008V10.3334H5.16667V9.57677L14.1301 18.5402C14.8867 19.2968 16.1135 19.2968 16.8701 18.5402L25.8333 9.57697V23.2501H5.16667V21.9584H2.58333V23.2501C2.58333 24.6768 3.73993 25.8334 5.16667 25.8334H25.8333C27.2601 25.8334 28.4167 24.6768 28.4167 23.2501V7.75008C28.4167 6.32334 27.2601 5.16675 25.8333 5.16675H5.16667ZM24.0068 7.75008H6.99336L15.5001 16.2568L24.0068 7.75008Z"/>
		<path d="M2.58333 12.9167C1.86997 12.9167 1.29167 13.495 1.29167 14.2084C1.29167 14.9218 1.86997 15.5001 2.58333 15.5001H6.45833C7.1717 15.5001 7.75 14.9218 7.75 14.2084C7.75 13.495 7.1717 12.9167 6.45833 12.9167H2.58333Z"/>
		<path d="M0 18.0834C0 17.37 0.578299 16.7917 1.29167 16.7917H7.75C8.46337 16.7917 9.04167 17.37 9.04167 18.0834C9.04167 18.7968 8.46337 19.3751 7.75 19.3751H1.29167C0.578299 19.3751 0 18.7968 0 18.0834Z"/>
	</symbol>

	<symbol id='phone' viewbox='0 0 20 21'>
		<path d="M7.805 9.40167C8.58695 10.7754 9.7246 11.9131 11.0983 12.695L11.835 11.6633C11.9535 11.4974 12.1286 11.3807 12.3273 11.3353C12.526 11.2898 12.7345 11.3188 12.9133 11.4167C14.0919 12.0608 15.3935 12.4481 16.7325 12.5533C16.9415 12.5699 17.1365 12.6646 17.2788 12.8186C17.421 12.9726 17.5 13.1745 17.5 13.3842V17.1025C17.5 17.3088 17.4235 17.5078 17.2853 17.661C17.1471 17.8142 16.9569 17.9106 16.7517 17.9317C16.31 17.9775 15.865 18 15.4167 18C8.28333 18 2.5 12.2167 2.5 5.08333C2.5 4.635 2.5225 4.19 2.56833 3.74833C2.58938 3.54308 2.68582 3.35293 2.83899 3.21469C2.99216 3.07646 3.19117 2.99996 3.3975 3H7.11583C7.32547 2.99997 7.52741 3.07896 7.6814 3.22121C7.83539 3.36346 7.93011 3.55852 7.94667 3.7675C8.05185 5.10649 8.43923 6.40807 9.08333 7.58667C9.18122 7.76547 9.21018 7.97395 9.16472 8.17266C9.11927 8.37137 9.00255 8.54654 8.83667 8.665L7.805 9.40167ZM5.70333 8.85417L7.28667 7.72333C6.83732 6.75341 6.52946 5.72403 6.3725 4.66667H4.175C4.17 4.805 4.1675 4.94417 4.1675 5.08333C4.16667 11.2967 9.20333 16.3333 15.4167 16.3333C15.5558 16.3333 15.695 16.3308 15.8333 16.325V14.1275C14.776 13.9705 13.7466 13.6627 12.7767 13.2133L11.6458 14.7967C11.1906 14.6198 10.7483 14.4109 10.3225 14.1717L10.2742 14.1442C8.63965 13.2139 7.28607 11.8604 6.35583 10.2258L6.32833 10.1775C6.08909 9.75166 5.88024 9.30945 5.70333 8.85417Z" fill="#C7CAD1"/>
	</symbol>

	<symbol id='whats-app' viewBox="0 0 32 32">
		<circle cx="16" cy="16" r="16" fill="#48C95F"/>
		<path d="M22.3415 9.65001C20.761 8.07501 18.6537 7.20001 16.4293 7.20001C11.8049 7.20001 8.05854 10.9333 8.05854 15.5417C8.05854 17 8.46829 18.4583 9.17073 19.6833L8 24L12.4488 22.8333C13.678 23.475 15.0244 23.825 16.4293 23.825C21.0537 23.825 24.8 20.0917 24.8 15.4833C24.7415 13.325 23.9219 11.225 22.3415 9.65001ZM20.4683 18.5167C20.2927 18.9833 19.4732 19.45 19.0634 19.5083C18.7122 19.5667 18.2439 19.5667 17.7756 19.45C17.4829 19.3333 17.0732 19.2167 16.6049 18.9833C14.4976 18.1083 13.1512 16.0083 13.0341 15.8333C12.9171 15.7167 12.1561 14.725 12.1561 13.675C12.1561 12.625 12.6829 12.1583 12.8585 11.925C13.0341 11.6917 13.2683 11.6917 13.4439 11.6917C13.561 11.6917 13.7366 11.6917 13.8537 11.6917C13.9707 11.6917 14.1463 11.6333 14.322 12.0417C14.4976 12.45 14.9073 13.5 14.9659 13.5583C15.0244 13.675 15.0244 13.7917 14.9659 13.9083C14.9073 14.025 14.8488 14.1417 14.7317 14.2583C14.6146 14.375 14.4976 14.55 14.439 14.6083C14.3219 14.725 14.2049 14.8417 14.322 15.0167C14.439 15.25 14.8488 15.8917 15.4927 16.475C16.3122 17.175 16.9561 17.4083 17.1902 17.525C17.4244 17.6417 17.5415 17.5833 17.6585 17.4667C17.7756 17.35 18.1854 16.8833 18.3024 16.65C18.4195 16.4167 18.5951 16.475 18.7707 16.5333C18.9463 16.5917 20 17.1167 20.1756 17.2333C20.4098 17.35 20.5268 17.4083 20.5854 17.4667C20.6439 17.6417 20.6439 18.05 20.4683 18.5167Z" fill="white"/>
	</symbol>

	<symbol id='email' viewBox="0 0 20 20">
		<path d="M2.50002 2.5H17.5C17.721 2.5 17.933 2.5878 18.0893 2.74408C18.2456 2.90036 18.3334 3.11232 18.3334 3.33333V16.6667C18.3334 16.8877 18.2456 17.0996 18.0893 17.2559C17.933 17.4122 17.721 17.5 17.5 17.5H2.50002C2.27901 17.5 2.06704 17.4122 1.91076 17.2559C1.75448 17.0996 1.66669 16.8877 1.66669 16.6667V3.33333C1.66669 3.11232 1.75448 2.90036 1.91076 2.74408C2.06704 2.5878 2.27901 2.5 2.50002 2.5V2.5ZM16.6667 6.03167L10.06 11.9483L3.33335 6.01333V15.8333H16.6667V6.03167ZM3.75919 4.16667L10.0509 9.71833L16.2517 4.16667H3.75919Z" fill="#C7CAD1"/>
	</symbol>

	<symbol id='mark' viewBox="0 0 20 20">
		<path d="M10 17.4167L14.125 13.2917C14.9408 12.4759 15.4963 11.4365 15.7213 10.3049C15.9463 9.17337 15.8308 8.00051 15.3892 6.93465C14.9477 5.86878 14.2 4.95777 13.2408 4.31682C12.2815 3.67587 11.1537 3.33377 10 3.33377C8.8463 3.33377 7.71851 3.67587 6.75924 4.31682C5.79997 4.95777 5.05229 5.86878 4.61076 6.93465C4.16923 8.00051 4.05368 9.17337 4.27871 10.3049C4.50374 11.4365 5.05926 12.4759 5.875 13.2917L10 17.4167ZM10 19.7733L4.69667 14.47C3.64779 13.4211 2.93349 12.0847 2.64411 10.6299C2.35473 9.17504 2.50326 7.66704 3.07092 6.2966C3.63858 4.92616 4.59987 3.75483 5.83324 2.93072C7.0666 2.10661 8.51665 1.66675 10 1.66675C11.4834 1.66675 12.9334 2.10661 14.1668 2.93072C15.4001 3.75483 16.3614 4.92616 16.9291 6.2966C17.4968 7.66704 17.6453 9.17504 17.3559 10.6299C17.0665 12.0847 16.3522 13.4211 15.3033 14.47L10 19.7733V19.7733ZM10 10.8333C10.442 10.8333 10.866 10.6578 11.1785 10.3452C11.4911 10.0326 11.6667 9.60871 11.6667 9.16668C11.6667 8.72466 11.4911 8.30073 11.1785 7.98817C10.866 7.67561 10.442 7.50002 10 7.50002C9.55798 7.50002 9.13405 7.67561 8.82149 7.98817C8.50893 8.30073 8.33334 8.72466 8.33334 9.16668C8.33334 9.60871 8.50893 10.0326 8.82149 10.3452C9.13405 10.6578 9.55798 10.8333 10 10.8333ZM10 12.5C9.11595 12.5 8.2681 12.1488 7.64298 11.5237C7.01786 10.8986 6.66667 10.0507 6.66667 9.16668C6.66667 8.28263 7.01786 7.43478 7.64298 6.80966C8.2681 6.18454 9.11595 5.83335 10 5.83335C10.8841 5.83335 11.7319 6.18454 12.357 6.80966C12.9821 7.43478 13.3333 8.28263 13.3333 9.16668C13.3333 10.0507 12.9821 10.8986 12.357 11.5237C11.7319 12.1488 10.8841 12.5 10 12.5Z" fill="#CD0000"/>
	</symbol>

	<symbol id='long-arrow' viewBox="0 0 24 24" >
		<path d="M11.4801 19.7301C11.283 19.7304 11.0933 19.6553 10.9501 19.5201L3.95005 12.5201C3.6576 12.2272 3.6576 11.7529 3.95005 11.4601L10.9501 4.46006C11.2429 4.16761 11.7172 4.16761 12.0101 4.46006C12.153 4.59935 12.2336 4.79048 12.2336 4.99006C12.2336 5.18965 12.153 5.38077 12.0101 5.52006L5.55005 12.0001L12.0001 18.4501C12.143 18.5894 12.2236 18.7805 12.2236 18.9801C12.2236 19.1796 12.143 19.3708 12.0001 19.5101C11.8646 19.6521 11.6763 19.7318 11.4801 19.7301Z"/>
		<path d="M19.52 12.75H4.52002C4.10581 12.75 3.77002 12.4142 3.77002 12C3.77002 11.5858 4.10581 11.25 4.52002 11.25H19.52C19.9342 11.25 20.27 11.5858 20.27 12C20.27 12.4142 19.9342 12.75 19.52 12.75Z"/>
		<path d="M11.4801 19.7301C11.283 19.7304 11.0933 19.6553 10.9501 19.5201L3.95005 12.5201C3.6576 12.2272 3.6576 11.7529 3.95005 11.4601L10.9501 4.46006C11.2429 4.16761 11.7172 4.16761 12.0101 4.46006C12.153 4.59935 12.2336 4.79048 12.2336 4.99006C12.2336 5.18965 12.153 5.38077 12.0101 5.52006L5.55005 12.0001L12.0001 18.4501C12.143 18.5894 12.2236 18.7805 12.2236 18.9801C12.2236 19.1796 12.143 19.3708 12.0001 19.5101C11.8646 19.6521 11.6763 19.7318 11.4801 19.7301Z"/>
		<path d="M19.52 12.75H4.52002C4.10581 12.75 3.77002 12.4142 3.77002 12C3.77002 11.5858 4.10581 11.25 4.52002 11.25H19.52C19.9342 11.25 20.27 11.5858 20.27 12C20.27 12.4142 19.9342 12.75 19.52 12.75Z"/>
	</symbol>


</svg>