<svg width="40" height="40" viewBox="0 0 40 40" fill="none" xmlns="http://www.w3.org/2000/svg">
<rect width="40" height="40" rx="20" fill="#E8483F"/>
<path fill-rule="evenodd" clip-rule="evenodd" d="M26.6857 10.089C26.7626 10.1422 26.8262 10.2165 26.8702 10.3048C26.9143 10.3932 26.9375 10.4926 26.9375 10.5937V28.4062C26.9375 28.5637 26.8815 28.7147 26.7819 28.8261C26.6823 28.9374 26.5471 29 26.4062 29H23.2188C23.0779 29 22.9427 28.9374 22.8431 28.8261C22.7435 28.7147 22.6875 28.5637 22.6875 28.4062V26.625H21.625V28.4062C21.625 28.5637 21.569 28.7147 21.4694 28.8261C21.3698 28.9374 21.2346 29 21.0938 29H11.5312C11.3904 29 11.2552 28.9374 11.1556 28.8261C11.056 28.7147 11 28.5637 11 28.4062V21.875C11.0001 21.7504 11.0352 21.629 11.1004 21.528C11.1656 21.427 11.2576 21.3515 11.3634 21.3121L17.375 19.0725V15.3437C17.375 15.2336 17.4024 15.1256 17.4542 15.0318C17.506 14.9381 17.5801 14.8623 17.6683 14.8129L26.1683 10.0629C26.2493 10.0176 26.3394 9.99615 26.43 10.0007C26.5206 10.0053 26.6086 10.0357 26.6857 10.089V10.089ZM17.375 20.3241L12.0625 22.3025V27.8125H17.375V20.3241ZM18.4375 27.8125H20.5625V26.0312C20.5625 25.8738 20.6185 25.7227 20.7181 25.6114C20.8177 25.5 20.9529 25.4375 21.0938 25.4375H23.2188C23.3596 25.4375 23.4948 25.5 23.5944 25.6114C23.694 25.7227 23.75 25.8738 23.75 26.0312V27.8125H25.875V11.5544L18.4375 15.7107V27.8125Z" fill="white"/>
<path d="M13.125 23.0625H14.1875V24.25H13.125V23.0625ZM15.25 23.0625H16.3125V24.25H15.25V23.0625ZM13.125 25.4375H14.1875V26.625H13.125V25.4375ZM15.25 25.4375H16.3125V26.625H15.25V25.4375ZM19.5 20.6875H20.5625V21.875H19.5V20.6875ZM21.625 20.6875H22.6875V21.875H21.625V20.6875ZM19.5 23.0625H20.5625V24.25H19.5V23.0625ZM21.625 23.0625H22.6875V24.25H21.625V23.0625ZM23.75 20.6875H24.8125V21.875H23.75V20.6875ZM23.75 23.0625H24.8125V24.25H23.75V23.0625ZM19.5 18.3125H20.5625V19.5H19.5V18.3125ZM21.625 18.3125H22.6875V19.5H21.625V18.3125ZM23.75 18.3125H24.8125V19.5H23.75V18.3125ZM19.5 15.9375H20.5625V17.125H19.5V15.9375ZM21.625 15.9375H22.6875V17.125H21.625V15.9375ZM23.75 15.9375H24.8125V17.125H23.75V15.9375ZM23.75 13.5625H24.8125V14.75H23.75V13.5625Z" fill="white"/>
</svg>
